<?xml version="1.0" standalone="no"?>
<!DOCTYPE svg PUBLIC "-//W3C//DTD SVG 20010904//EN"
 "http://www.w3.org/TR/2001/REC-SVG-20010904/DTD/svg10.dtd">
<svg version="1.0" xmlns="http://www.w3.org/2000/svg"
 width="1517.000000pt" height="1517.000000pt" viewBox="0 0 1517.000000 1517.000000"
 preserveAspectRatio="xMidYMid meet">
<metadata>
Created by potrace 1.11, written by Peter Selinger 2001-2013
</metadata>
<g transform="translate(0.000000,1517.000000) scale(0.100000,-0.100000)"
fill="#000000" stroke="none">
<path d="M9388 15165 c-2 -1 -43 -5 -93 -9 -49 -3 -101 -8 -115 -10 -14 -2
-47 -8 -75 -12 -27 -4 -57 -9 -65 -10 -8 -2 -31 -6 -50 -9 -19 -4 -46 -9 -60
-11 -140 -25 -370 -105 -490 -171 -198 -110 -412 -296 -543 -472 -23 -31 -44
-58 -47 -61 -32 -32 -175 -268 -215 -357 -99 -214 -170 -498 -191 -763 -3 -41
-8 -91 -11 -110 -3 -19 -6 -256 -7 -527 0 -270 -3 -493 -6 -496 -3 -3 -32 -8
-65 -11 -33 -3 -78 -8 -100 -11 -76 -9 -120 -14 -175 -20 -30 -3 -66 -8 -80
-10 -14 -2 -54 -7 -90 -10 -82 -9 -106 -12 -150 -19 -19 -3 -53 -8 -75 -11
-172 -24 -385 -66 -572 -115 -146 -38 -446 -131 -488 -150 -11 -5 -56 -23
-100 -39 -221 -80 -698 -310 -817 -392 -14 -11 -29 -19 -32 -19 -10 0 -231
-141 -326 -210 -151 -108 -275 -213 -415 -354 -149 -150 -169 -172 -252 -281
-227 -298 -414 -690 -489 -1025 -4 -19 -8 -37 -9 -40 -1 -3 -4 -18 -8 -35 -9
-38 -11 -48 -35 -170 -11 -55 -23 -127 -27 -160 -4 -32 -9 -68 -11 -80 -26
-134 -25 -715 1 -876 2 -13 6 -46 10 -74 6 -50 30 -187 49 -280 4 -17 30 -129
41 -175 77 -312 261 -763 413 -1010 45 -73 126 -193 147 -217 5 -6 21 -26 35
-45 79 -105 236 -258 415 -405 447 -365 870 -595 1360 -743 77 -23 147 -43
155 -45 8 -2 74 -19 145 -38 129 -35 237 -62 285 -71 14 -3 88 -18 165 -35 77
-16 158 -32 180 -35 22 -4 65 -11 95 -16 30 -5 78 -12 105 -15 28 -3 59 -8 70
-10 11 -2 47 -7 80 -10 33 -4 76 -8 95 -10 19 -2 87 -7 150 -10 63 -4 138 -8
165 -10 28 -2 62 -4 77 -4 15 -1 40 -12 55 -25 l28 -24 5 -2396 5 -2396 92 73
c335 264 758 586 867 659 33 22 80 59 103 81 80 77 74 -109 76 2167 l2 2032
28 22 c15 12 67 35 115 50 238 74 532 208 797 361 126 73 315 195 451 291 23
16 76 53 118 83 42 29 76 57 76 61 0 9 -262 262 -571 551 -68 63 -146 135
-172 159 l-49 44 -76 -39 c-43 -22 -220 -121 -394 -221 -302 -173 -318 -181
-333 -164 -15 17 -17 207 -16 2407 0 1313 0 2398 1 2409 l0 22 1157 -2 1158
-1 0 -4405 c0 -4186 1 -4407 18 -4433 35 -54 29 -54 598 -52 480 1 528 2 552
18 15 10 30 30 34 45 10 34 9 9952 -1 10207 -4 105 -8 208 -11 230 -2 22 -6
87 -10 145 -3 58 -8 123 -10 145 -5 45 -12 130 -20 220 -14 156 -20 208 -35
285 -6 30 -13 66 -16 80 -10 56 -68 231 -106 320 -105 250 -260 474 -469 677
-378 369 -807 559 -1374 608 -38 3 -90 8 -115 11 -46 6 -506 14 -512 9z m605
-1069 c306 -25 539 -175 684 -441 42 -79 104 -257 117 -341 4 -20 8 -39 10
-43 2 -3 7 -31 11 -61 3 -30 8 -66 10 -80 9 -60 17 -236 17 -365 -1 -104 -9
-555 -12 -617 0 -3 -508 -6 -1130 -6 -832 0 -1130 3 -1131 12 0 6 -3 29 -5 51
-9 88 -12 624 -4 690 5 39 12 92 15 119 32 283 175 610 350 804 129 142 300
237 463 257 26 4 58 8 72 11 14 2 77 7 140 10 63 4 116 7 117 8 5 4 197 -2
276 -8z m-2576 -2994 c13 -8 12 -918 -2 -1902 -17 -1224 -26 -2119 -29 -2727
-1 -337 -5 -456 -14 -465 -8 -8 -90 -12 -299 -12 -309 -1 -426 5 -578 29 -16
3 -50 8 -75 11 -77 9 -324 73 -432 110 -357 124 -716 367 -993 675 -369 408
-593 962 -641 1579 -12 166 -7 448 10 535 2 11 7 40 10 65 14 102 53 263 88
365 78 229 195 447 332 625 149 193 366 397 582 550 350 247 848 437 1324 505
63 9 125 18 138 20 12 2 62 7 110 10 48 4 103 8 122 10 19 2 98 7 175 10 77 4
142 9 144 11 6 6 15 5 28 -4z"/>
</g>
</svg>
