<svg xmlns="http://www.w3.org/2000/svg" viewBox="0 0 299.85 505.23"><title>logo-black</title><g id="Calque_2" data-name="Calque 2"><g id="Calque_1-2" data-name="Calque 1"><path d="M183.52,298.87c7.59-4.38,15.12-8.86,22.8-13.05,3.82-2,3-2,4.85-.24,8,7.26,15.75,14.79,23.56,22.26a14.71,14.71,0,0,1,1.28,1.54c-2,1.41-4.34,3.1-6.34,4.5-13.53,9.52-27.8,17.66-43.72,22.48-3.48,1.06-3.06,3.31-3,5.78,0,41-.12,82,.11,123,0,11.15.63,11.32-7.45,16.62-10.26,7.53-20,15.17-30.6,23.48v-7.69q0-73.5,0-147c0-6.78,0-6.68-6.81-6.93-18.92-.71-37.13-4.85-55.28-10.18-19.22-5.65-35.44-16-50.09-28.94C22.27,295.22,15.14,283.24,10,270.26-.95,243-3.21,214.92,4.74,186.56c6.88-24.57,22.83-43,43.95-56.2a184.58,184.58,0,0,1,66.13-25.76c8.64-1.53,21.56-2.78,30.14-3.82,0-10.5-.57-20.33,0-30.42.73-13.12,2.32-25,8.73-36.4,8-14.18,19.21-25.64,35.12-30.25,15.43-4.47,31.37-4.44,47.51-2.34,19.93,2.6,35.43,12,47.55,27.34a66.17,66.17,0,0,1,13.72,35.42c1.14,12.25,2.13,24.57,2.15,36.86q.24,162.5.09,325c0,7.38,0,7.38-7.22,7.38-9.34,0-18.67-.18-28,.09-4,.11-5.13-1.33-5.11-5.2.13-25,.06-50,.06-75V136.9H182.23V297.6ZM145,135.28c-5.73.44-12.32.64-17.41,1.16-19.77,2-38.54,8.1-54.18,20C48.92,174.93,38.88,200.79,43,231.2c3.34,24.91,14.78,45.69,35.87,60.34,19.23,13.37,41,15.4,63.55,14a1.64,1.64,0,0,0,1.14-.26C143.51,249.22,145,192.59,145,135.28Zm37.9-34.4h75.62c-.3-14.58,1.79-28.93-2.25-42.9-3.5-12.11-11.17-20.62-24.18-22.17a89.46,89.46,0,0,0-21.31.45C202,37.33,195.63,42.68,190.92,50,180.83,65.74,181.87,83.1,182.86,100.88Z"/></g></g></svg>