<svg xmlns="http://www.w3.org/2000/svg" viewBox="0 0 2243.25 593.26"><defs><style>.cls-1{fill:#fff;}</style></defs><title>logo-complet</title><g id="Calque_2" data-name="Calque 2"><g id="Calque_1-2" data-name="Calque 1"><path class="cls-1" d="M2206.24,515.23V338.78h33.08V590.36c-9.08,0-18.18.17-27.27-.17-1.38-.06-3-2.24-4-3.79q-32.31-54.55-64.47-109.2c-13-22.06-26-44.11-39.85-67.51V590h-33.62V338.54c6.31,0,12.81.63,19.13-.15,8.42-1.06,12.81,2.19,17.06,9.52,31.81,54.85,64.15,109.39,96.33,164,.73,1.23,1.55,2.42,2.32,3.63Z"/><path class="cls-1" d="M2026.18,376.58l-24.07,21.48c-10.85-6.74-20.69-14-31.49-19.38-55.65-27.54-123.88,5.87-136.47,66.46-11.57,55.62,28.66,109.41,85.58,114.42,22.52,2,43.77-1.58,63-14.26a8.06,8.06,0,0,0,4.13-7.67c-.17-21.83-.09-43.66-.09-65.49V466.5h33.67v4.76c0,26.83-.06,53.66.09,80.49a8.68,8.68,0,0,1-3.39,7.2c-65.35,58-164.05,40.34-205.18-36.69-24.41-45.7-15.11-107.86,21.16-145.13,22.34-23,48.77-37.15,80.74-40.68,35.89-4,67.78,6.25,96.59,27.29,4.16,3,8.12,6.38,12.14,9.61C2023.63,374.17,2024.57,375.12,2026.18,376.58Z"/><path class="cls-1" d="M1155.67,590.38V338.54c10,0,19.76-.24,29.53,0,23,.68,45.67,4.12,65.93,15.63,39.9,22.65,62,57.15,64.4,103.15,2.48,47.55-16.34,85.32-55.62,112.19-22.57,15.44-48.65,20.07-75.52,20.78C1174.94,590.59,1165.47,590.38,1155.67,590.38ZM1189.07,372V557.07c32.58,0,58.65-12.62,76.61-39.43,21.32-31.83,22.74-65.76,4.42-99.16C1253,387.33,1225.39,372.23,1189.07,372Z"/><path class="cls-1" d="M2138.7,145.06v76.81h104.55v32.54H2105.41V3.24h137.68V35.75H2138.75v76.54h104.42v32.77Z"/><path class="cls-1" d="M1389.72,480.75v76.57h104.39v32.81H1356.18V339h137.89v32.24H1389.73v76.56H1494.2v33Z"/><path class="cls-1" d="M1189.05,35.91v76.35h104.37v32.79H1189.09v76.63h104.43v32.86h-137.7V3.14h137.69V35.91Z"/><path class="cls-1" d="M2075.1,41.21,2050.72,63c-7.41-5.13-14.34-10.54-21.83-15-59.37-35.56-127.19-2-143.44,53.59-19.51,66.74,31.41,116,78.47,122.07,31.56,4.08,58.28-6.09,82.3-25.6,1.27-1,2.55-2.07,4.09-3.31l24.45,21.47C2027,265,1950.4,272.25,1896.3,229.3c-62.56-49.66-61.85-137.35-14.71-187.25C1932-11.38,2015.49-15.71,2075.1,41.21Z"/><path class="cls-1" d="M1631.2,254.88c5.12-13.87,9.92-26.93,14.76-40q38.32-103.38,76.57-206.78c1.53-4.15,3.46-5.49,7.85-5.38,12.27.33,12.31.09,16.7,11.89q43.58,117.41,87.1,234.82c.57,1.51,1,3.08,1.74,5.38-11.6,0-22.69.13-33.76-.2-1.14,0-2.62-2.63-3.25-4.3-9.84-26.32-19.66-52.65-29.25-79.07-1.47-4-3.32-5.58-7.8-5.51-18.82.29-37.66.24-56.48,0-4.08-.05-6.11,1-7.57,5.09-9.57,26.6-19.53,53.06-29.15,79.64-1.25,3.44-2.94,4.51-6.48,4.43C1652.2,254.73,1642.2,254.88,1631.2,254.88Zm103.07-178.6-1.24.11-21,56.82h43.38Z"/><path class="cls-1" d="M1528.12,174.38v80.14h-33.31V2.87h66.06c40.31,0,77.72,32.33,83.6,72.23,6.57,44.61-21,86.42-64.73,96.52-11.66,2.69-24.11,2-36.21,2.71C1538.58,174.61,1533.61,174.38,1528.12,174.38Zm.29-33c11.22,0,22.18.35,33.12-.07,25.51-1,47.92-22.36,50-47.28,2.27-27.06-15.22-52-41.43-56.41-13.29-2.23-27.16-1.08-40.77-1.43-.25,0-.51.36-.94.68Z"/><path class="cls-1" d="M1312,183.36l31.66-11.25c2,8,3.39,15.53,5.83,22.73,6.22,18.34,22,29.51,41.69,30,19.21.51,37.14-10.87,44.48-28.23a45.23,45.23,0,0,0-10.48-50.55,94.66,94.66,0,0,0-34.17-21c-15.52-5.52-29.94-13-41.76-24.71-16.43-16.35-20.92-36.19-14.6-57.9,6.36-21.89,21.75-35.75,43.86-40.78,33.73-7.67,64.23,11.8,72.73,46l-29.79,11.56c-2-4.23-3.78-8.29-5.79-12.23-5.29-10.41-14.14-14.61-25.44-14-10.55.57-20.31,7.82-23.3,17.61-3.26,10.64-1.35,20.71,7.51,27.6,7.78,6,16.36,11.7,25.48,15.24,22.79,8.87,43.66,20.38,58.17,40.5,33.79,46.85,6.14,112.82-51.51,122.32C1357.76,264.26,1319.46,234.33,1312,183.36Z"/><path class="cls-1" d="M1661.59,383.14l-29.93,11.56c-1.91-4.07-3.61-8-5.54-11.76-5.3-10.35-14.56-15.64-26.18-14.46-11.09,1.13-19.07,7.06-22.71,17.63-3.71,10.83-1.29,21,7.78,27.89,8,6.08,16.76,11.66,26,15.32,19.84,7.82,38,17.82,52.24,33.94,33.71,38.27,22.42,97.22-23,120.79-43.29,22.46-103.85,3.73-116.61-56.63-1.77-8.38-1.78-8.38,6.39-11.3l24-8.59c1.58,7,2.72,13.83,4.72,20.45,5.72,18.83,21.29,31.21,40.07,32.35,20.22,1.23,38.56-9.47,46.64-27.2a45.12,45.12,0,0,0-9.35-50.76,93.15,93.15,0,0,0-35.33-22c-15.88-5.63-30.53-13.33-42.34-25.6-16.42-17.05-20.23-37.44-12.84-59.18,7.51-22.07,23.84-35.71,47-39.06C1626.29,331.69,1651.63,349.14,1661.59,383.14Z"/><path class="cls-1" d="M1718.17,338.83h32.88V590h-32.88Z"/><path class="cls-1" d="M259.54,180.89H182.2V343.54c8.4-4.71,16.1-8.5,23.17-13.24,3.34-2.24,4.85-1.83,7.38.68,6.85,6.79,14,13.29,21,19.94a34.35,34.35,0,0,1,2.31,2.9c-7.38,4.78-14.19,9.86-21.59,13.82A272.9,272.9,0,0,1,187.31,380c-3.36,1.35-4.52,2.7-4.51,6.28q.18,64.5,0,129c0,2.21-.75,5.26-2.29,6.51-11.25,9-22.79,17.73-35.12,27.21-.18-3-.43-5.18-.43-7.37q0-73.48,0-147c0-6.75,0-6.64-6.84-6.9-19.09-.75-37.45-4.93-55.76-10.36-19-5.66-35.17-15.86-49.58-28.8C20.25,337.4,12.33,322.81,7.13,306.9c-8.27-25.32-9.76-51-2.28-76.7,7.07-24.31,22.88-42.57,43.84-55.7a186.58,186.58,0,0,1,66.13-25.78c6.86-1.23,13.85-1.74,20.78-2.61,1.79-.23,3.58-.56,5.18-.81.57-10.63.55-21,1.8-31.17,2-16.36,6.65-31.88,17.27-45.08,9.49-11.79,20.93-19.88,36.23-22.86,18.62-3.64,37.25-3.33,54.75,2.76,27.78,9.66,43.3,30.64,46.75,59.86a327.83,327.83,0,0,1,2.14,37.86q.24,161.74.09,323.48c0,7.35,0,7.35-7.25,7.35-9.17,0-18.34-.22-27.5.1-4.51.16-5.63-1.44-5.6-5.74.18-22.66.08-45.33.08-68v-223Zm-115.82-1.36c-23.23.46-44.1,5.59-63.72,16.79C64,205.48,53.52,219,47.32,235.69c-5.45,14.67-7.36,29.89-3.55,45.6,6.49,26.77,20.1,47.88,45.41,60.41,15.11,7.48,31.31,8.48,47.72,8.4,6.81,0,6.82-.08,6.82-6.84V179.53Zm115.36-34.48c-.61-13.33-.42-26.17-2-38.79-1.81-14.61-11.18-23.88-24.8-26.35-3.88-.71-8-.39-11.93-.57-18.67-.86-31.76,11-35.33,28.64-2.14,10.6-1.64,21.73-2.46,32.61-.32,4.15,1.7,4.88,5.34,4.86,21.8-.13,43.59-.06,65.39-.08C254.78,145.37,256.24,145.21,259.08,145.05Z"/><path class="cls-1" d="M496,318.45c13.55.6,27.14.72,40.61,2,6.66.64,10.18,6.41,12.13,12.46,3.21,10,1,18.68-7.13,25.58,12,9.24,15,20.46,9.28,33.13-3.23,7.12-8.74,10.7-16.29,11-11.79.46-23.59.54-35.39.87-2.66.08-3.9-.7-3.89-3.63.09-26.13.06-52.25.09-78.38A23.51,23.51,0,0,1,496,318.45Zm14.05,70.37c6.55,0,12.54.26,18.5-.07,6.73-.36,9.64-3.6,9.83-10.05.18-6-3.09-10.27-9.3-10.78s-12.53-.12-19-.12ZM510,352.05c6.48,0,12.46.36,18.36-.13,3.93-.32,7.17-2.29,7.25-7.2.07-4.44-.32-9.16-5.37-9.8-6.61-.84-13.4-.2-20.24-.2Z"/><path class="cls-1" d="M484.31,226.44c10,10.11,15,23.56,22.39,37-6.12,0-11.06.26-15.93-.17-1.29-.12-2.69-2.17-3.54-3.63-4.6-7.9-9-15.9-13.54-23.84-3.93-6.9-6-7.89-14.82-7.06-.1,1.66-.3,3.41-.31,5.16,0,8.5-.08,17,0,25.5,0,2.9-.91,4.2-4,4.13-13.29-.29-10.87,1.68-10.95-10.62-.14-22.33,0-44.65,0-67v-6.29a32.42,32.42,0,0,1,4.12-.57c10,0,20,0,30,0,9.44,0,17.1,3.1,20.75,12.48,3.94,10.11,3.66,20.07-3.67,28.55C492.2,223,487.89,224.32,484.31,226.44Zm-25.43-12.27c6.77,0,12.9.23,19-.07,4.8-.24,7.4-3.71,7.7-9.3.28-5-2.19-9.69-6.15-10-6.72-.45-13.49-.12-20.56-.12Z"/><path class="cls-1" d="M812.62,212.16c0,15.15-.14,30.3.09,45.45.06,4.44-1,6.21-5.83,5.95-9.14-.48-8.2,1.1-8.22-8.39q-.06-34.74,0-69.47v-6.64c4.61,0,8.74-.3,12.77.18,1.28.15,2.67,2.19,3.42,3.66,8.29,16.26,16.47,32.58,25.48,48.77V179.39h13.23v84c-4.11,0-8.13.42-12-.2-1.57-.26-3.18-2.55-4.08-4.28-8.09-15.6-16-31.27-24-46.93Z"/><path class="cls-1" d="M867.1,506.13c11,10.75,15.32,24.66,22.7,38.36-6,0-10.79.25-15.5-.16-1.35-.12-2.92-2-3.72-3.37q-7.19-12.81-14-25.81c-3.1-5.86-7.82-7.74-14.79-6.23v22.75a66.5,66.5,0,0,1-.17,9.48,4.72,4.72,0,0,1-3.08,3.21c-3.41.44-6.92.15-10.82.15V459.23c4.87,0,9.81-.06,14.74,0,8,.11,16-.31,23.92.63,9.39,1.11,15.89,7.58,17,16.93C885.27,492.16,882.19,500.49,867.1,506.13Zm-25-10.94c6.32-.31,12.41-.71,18.51-.89,3.84-.12,7.08-2,7.38-5.45.36-4.19-.94-8.55-1.76-12.79-.11-.59-1.61-1.29-2.48-1.3-7.11-.11-14.23-.06-21.65-.06Z"/><path class="cls-1" d="M646.17,92.31c-4.91,0-8.7-.07-12.49,0-2.48.06-3.73-.85-3.67-3.45.07-3.64,0-7.28,0-11.7,9.7,0,18.94-.07,28.17.14.83,0,2.29,1.87,2.31,2.89.18,9.49.24,19,0,28.48,0,1.7-1.39,3.74-2.73,5a39.08,39.08,0,0,1-27.56,10.65c-11.36-.09-21.05-4.74-26.86-15-10.75-19.06-10.82-38.6-.13-57.49,10-17.66,38.66-19.25,51.23-3.47a17.36,17.36,0,0,1,1.79,3c5.2,10.21,2.93,14.1-8.49,14.14-1.13,0-2.79-1.53-3.32-2.73-2.64-5.92-6.48-9.89-13.42-10.19-7.46-.33-13.34,2.57-16.3,9.24-5.75,12.94-6,26.06,1.08,38.76,6.11,11,21,9.74,28.39,2.11C646.07,100.69,645.48,96.33,646.17,92.31Z"/><path class="cls-1" d="M714.57,92.91V39.33h13v83.3c-4.16,0-8.32.35-12.35-.18-1.44-.2-3-2.31-3.83-3.9-7.1-13.92-14-27.92-21-41.88A12.84,12.84,0,0,0,686.8,72v50.23H673.55V39a96.27,96.27,0,0,1,11.27.15c1.4.16,3.1,1.74,3.81,3.11,8.18,16,16.2,32,24.27,48C713.12,90.75,713.43,91.14,714.57,92.91Z"/><path class="cls-1" d="M721.39,219.27a51.66,51.66,0,0,1,7-27c11-19.21,39.44-18.49,51.68-2,11.1,15,10.82,49.33-1,63.06C767,267.41,744.4,268.54,732,254.67,723.27,244.93,721.3,233.26,721.39,219.27Zm14.45,1.18.47.11c.25,3.49.33,7,.83,10.44a30.78,30.78,0,0,0,2,6.66c3.11,7.91,8.08,11,16.4,10.93,9.58-.1,12.8-4,15.55-12a49.79,49.79,0,0,0,.3-30.87,17,17,0,0,0-15.7-12.24c-7.77-.15-14.54,4.09-16.78,11.39C737.32,209.93,736.81,215.26,735.84,220.45Z"/><path class="cls-1" d="M374.78,122.67V39.74c12,0,23.85-.71,35.52.26,7.55.63,13.48,5.91,16.56,12.93,8.07,18.4,8.49,37.07-.1,55.45-4.48,9.59-12.34,14.44-23.14,14.31C394.15,122.58,384.69,122.67,374.78,122.67Zm14.34-69.3v54.88c5.1-.23,9.86-.47,14.62-.67,7.46-.31,11.5-5.25,12.29-11.59a107.45,107.45,0,0,0,.41-26.69c-1.68-13-6-15.92-18.87-15.93Z"/><path class="cls-1" d="M956.74,515.17c4-.48,7.79-1.33,11.52-1.15,1.27.06,3,2.55,3.52,4.23,2.62,8.41,7.74,12.37,15.58,11.57,5.86-.59,10.52-4.68,11.08-9.7.61-5.5-1.53-8.31-8.11-10.82-6.82-2.6-14-4.54-20.32-8.06-14.66-8.17-14.44-31.17,0-40s33.71-2.5,39.59,12.86c1,2.68,1.11,5.73,1.7,9-2.92.4-5.17.73-7.43,1-4.2.53-7.65.68-8.71-5.13-.88-4.78-6.37-6.68-13.76-5.66-3.61.49-7.62,1-8.16,5.76-.49,4.3,2.22,6.83,5.89,8.23,5.11,2,10.29,3.74,15.5,5.42,19.71,6.36,21.07,23,16.1,37.81-2.52,7.51-8.3,12.43-16.27,14C973.58,548.82,959,540.39,956.74,515.17Z"/><path class="cls-1" d="M425,483.28c-2.4.31-4.53.53-6.64.86-4.51.7-7.81.4-9-5.4-1.13-5.34-9.75-7.21-17.3-4.5-5,1.81-6.16,7.44-2,10.91a19.63,19.63,0,0,0,5.64,3.06c5.12,1.94,10.43,3.39,15.45,5.52,16.73,7.07,21.88,29.13,10.22,43.21-11.89,14.37-38.81,11.09-46.42-5.88-2.11-4.72-2.95-10-4.58-15.72,4.8-.62,8.4-1.49,12-1.33,1.31.06,3.14,2.37,3.64,4,2.92,9.47,9.54,13.67,18.41,11.29a11,11,0,0,0,8.35-9.94c.4-5.24-2.43-8-6.91-9.67-6.84-2.55-13.79-4.86-20.51-7.71-12.51-5.32-14.31-23.19-8.91-32.24,7-11.71,17.76-13.42,30.49-11C418.5,460.86,425,470.34,425,483.28Z"/><path class="cls-1" d="M945.22,492c0,4.1.33,7.76-.2,11.29-.16,1.09-2.62,2.51-4.1,2.61-5,.33-10,.13-15,.13H911.1v23h37.45v15.55H938c-12.48,0-25-.07-37.46,0-2.77,0-4.27-.55-4.25-3.83.11-26.31.07-52.62.1-78.93a14,14,0,0,1,.39-2.23h51c0,4.19.29,8.31-.21,12.33-.12,1-2.75,2.42-4.25,2.46-8.82.24-17.65.12-26.48.12H911.1V492Z"/><path class="cls-1" d="M504.4,95.09c4.17-.59,8.06-1.41,12-1.48.94,0,2.25,2.37,2.81,3.86,3.49,9.31,8.74,12.47,18,10.61a10.06,10.06,0,0,0,8.41-9.2c.44-5-2.13-7.76-6.56-9.29-5.82-2-11.74-3.79-17.39-6.18-13-5.49-18.78-19.25-13.14-32.16a25,25,0,0,1,7.86-9.33c10.86-8.06,30.66-5.06,38.17,6.09,2.72,4,3.29,9.5,5.12,15.18-5.59.37-9.84.83-14.08.77-.75,0-1.79-2.06-2.18-3.33a12.93,12.93,0,0,0-19.67-6.72c-4.39,3.1-4.39,9.36.64,11.92a72.37,72.37,0,0,0,16.79,6.07c9.22,2.06,15.58,7.19,17.64,16.17a45.26,45.26,0,0,1,.51,17.62c-2.81,15.76-21.08,21.8-34,17.39C510.74,118.09,505.57,111.06,504.4,95.09Z"/><path class="cls-1" d="M513.45,263.06V179.37h51.34c0,4.15.3,8.13-.19,12-.14,1.14-2.49,2.83-3.87,2.87-9,.26-18,.14-27,.14H528v17h22.28c12.4,0,12.4,0,11.55,12.42a12.59,12.59,0,0,1-.56,2H527.9v22.08h37.56v15.18Z"/><path class="cls-1" d="M918.7,203.39a120,120,0,0,1-12.1.54c-1.06-.05-2.63-1.82-3-3.07-2.41-9.26-14.3-9.68-19.74-5.74-4.34,3.15-4.12,8.23.82,10.93,3.75,2,8,3.22,12,4.74,3.11,1.17,6.32,2.12,9.34,3.47,11,4.9,16.5,15.64,14.65,28.29-1.72,11.76-9.77,19.76-21.65,21.51-18.72,2.77-31.27-6.31-34.38-24.67-.54-3.22.49-4.75,3.61-5s6.27-.56,9.53-.85c.24.33.67.67.78,1.09,3.51,13.18,5.81,14.83,19.12,13.58a9,9,0,0,0,8.48-8.19c.6-4.45-1.19-7.94-5.42-9.61-5.87-2.31-11.74-4.83-17.84-6.25-9.58-2.24-13.71-9.1-15.48-17.52-3.4-16.15,7.25-28.66,23.78-28.72,16-.07,25.07,7.08,27.41,21.63A28.82,28.82,0,0,1,918.7,203.39Z"/><path class="cls-1" d="M458.5,108.12h37.94v14.06a33,33,0,0,1-3.79.47c-14.82,0-29.64,0-44.46,0-2.85,0-4.7-.27-4.68-3.91.12-25.81.09-51.61.13-77.42a11.68,11.68,0,0,1,.42-1.89h51.19c0,3.77.32,7.59-.21,11.28-.15,1.05-2.77,2.45-4.29,2.49-9.15.23-18.31.27-27.47,0-3.72-.09-4.83,1.12-4.86,4.83-.1,13.26-.23,13.26,12.85,13.26,5.82,0,11.65.09,17.48,0,2.91-.06,4.3.86,4.11,4s-.05,6.57-.05,10.4c-9.83,0-19.11.29-28.37-.11-5-.22-6.37,1.5-6,6.22C458.8,97,458.5,102.15,458.5,108.12Z"/><path class="cls-1" d="M674.58,319.32v14.82H638.2v17.69h33.26v14.85H638.15V389H675.5v14.06H623.73V319.32Z"/><path class="cls-1" d="M796.5,319c4.48,0,8.29-.22,12,.15,1.05.1,2.78,1.94,2.76,3-.37,21.46-.53,42.94-1.68,64.36-.53,9.69-8.52,16.29-19.83,17.83A36.62,36.62,0,0,1,768,401c-8.86-4.39-11-12.39-11.38-20.69-.78-19.46-.65-38.95-.85-58.43a12.28,12.28,0,0,1,.57-2.61h14c.09,2.11.26,4.06.27,6,0,15.49,0,31,0,46.47a38.52,38.52,0,0,0,.44,7c1.45,7.9,6.57,11.65,14.64,10.94,6.47-.56,10.51-5.16,10.61-12.79.21-16.82.17-33.65.23-50.47C796.51,324.25,796.5,322.11,796.5,319Z"/><path class="cls-1" d="M639.18,263.44c-4.86,0-9,.27-13.11-.15-1.28-.13-2.92-1.87-3.47-3.24-1.65-4.14-2.64-8.56-4.35-12.68a5.26,5.26,0,0,0-3.85-2.62c-7.65-.25-15.31-.12-23.63-.12-1.55,5-3.31,10-4.6,15-.77,3-2.28,4-5.27,3.85-3.45-.21-6.93-.05-11.38-.05,2.19-6.95,4.15-13.21,6.14-19.45,6.51-20.39,13.07-40.77,19.48-61.19.9-2.85,2.24-3.87,5.27-3.88,11.18-.06,11.11-.16,14.67,10.67,7.31,22.23,14.72,44.42,22.06,66.64C637.85,258.41,638.38,260.62,639.18,263.44Zm-26.59-34.5-8.67-28.87c-3,10.21-5.67,19.36-8.46,28.87Z"/><path class="cls-1" d="M488.3,403.44c-4.75,0-8.89.22-13-.14-1.21-.1-2.82-1.61-3.32-2.85-1.66-4.15-2.68-8.56-4.43-12.67a5.7,5.7,0,0,0-4-3c-6.81-.31-13.66-.32-20.47,0-1.39.07-3.35,1.73-3.91,3.12-1.53,3.83-2.46,7.91-3.61,11.89-.72,2.52-2,3.92-5,3.73-3.59-.25-7.21-.06-11.51-.06,3-9.88,5.8-19,8.69-28.15,5.16-16.29,10.53-32.51,15.54-48.85,2.27-7.38,2-7.47,9.5-7.47,8.34,0,8.24,0,10.79,7.84q12,36.66,24.05,73.28C487.89,400.88,488,401.7,488.3,403.44ZM462.18,370c-3-9.63-5.74-18.7-8.95-29.16-3.18,10.57-5.92,19.7-8.76,29.16Z"/><path class="cls-1" d="M749.09,403.44c-4.69,0-8.84.22-12.93-.13a5,5,0,0,1-3.29-2.79c-1.67-4.15-2.71-8.56-4.45-12.67a5.69,5.69,0,0,0-4-3.06c-6.81-.32-13.65-.32-20.46,0-1.41.07-3.4,1.74-4,3.14-1.69,4.13-2.62,8.56-4.23,12.74a4.84,4.84,0,0,1-3.35,2.65c-3.94.34-7.92.13-12.55.13,2.15-7.05,4.07-13.51,6.1-19.94,6.29-19.92,12.69-39.81,18.89-59.77,1.1-3.54,2.73-5,6.65-4.86,10.37.27,10.25.09,13.54,10.26,7.56,23.35,15.26,46.66,22.89,70C748.37,400.34,748.62,401.59,749.09,403.44ZM723,370c-2.94-9.6-5.71-18.66-8.48-27.72l-1,0c-2.68,9.1-5.35,18.2-8.15,27.68Z"/><path class="cls-1" d="M508,459.48h13.62c.09,2,.24,3.76.24,5.53,0,15.5-.19,31,.25,46.49a32.23,32.23,0,0,0,3.5,13.1c2.45,4.87,8,6.28,13.82,4.8,5.26-1.34,7.92-5.15,8.06-10.12.5-17.64.63-35.28.88-52.93,0-2.12,0-4.25,0-6.75h14.1a31.6,31.6,0,0,1,.44,3.76c0,16.33.09,32.66-.06,49a91.54,91.54,0,0,1-1.29,13.4c-1.66,10.35-7.92,17.37-18.39,18.94a47.88,47.88,0,0,1-18.63-.78c-10.68-2.75-15.52-11.38-15.95-21.7-.84-20.29-.82-40.61-1.14-60.91A7.94,7.94,0,0,1,508,459.48Z"/><path class="cls-1" d="M798.34,459.51h14.27c.14,1.67.36,3.11.36,4.56,0,15.83,0,31.66-.14,47.48a112.9,112.9,0,0,1-1.27,14.91c-1.33,9-8,16.65-17,18-6.27.95-13.09,1.17-19.18-.29-11.11-2.66-16.3-11.46-16.75-22.24-.83-19.79-.83-39.62-1-59.44,0-1.08,1.89-3,3.07-3.11,3.43-.42,6.94-.15,11-.15.13,2.23.33,4.15.34,6.06,0,15.49-.22,31,.16,46.48a34.31,34.31,0,0,0,3.32,12.64c2.53,5.7,7.92,6,13.26,5.13s7.71-4.71,8.76-9.56a29.39,29.39,0,0,0,.65-5.91c.08-16.17.09-32.33.12-48.49Z"/><path class="cls-1" d="M882.59,403.44c-5.38,0-10,.15-14.66-.1a5,5,0,0,1-3.39-2.23c-3.8-6.6-7.38-13.33-11-20l-3-5.49c-3,5.79-5.74,11-8.46,16.21-6.84,13.11-7.83,13.6-23.42,11.05,2.17-4,4.25-7.87,6.35-11.72,4.93-9,9.75-18.13,14.86-27.06a7.54,7.54,0,0,0,.09-8.31c-6-10.89-11.75-21.92-17.57-32.91-.52-1-.85-2.07-1.56-3.83,5.32,0,10.15-.48,14.8.25,1.79.28,3.52,3.11,4.63,5.13,3.51,6.34,6.7,12.85,10.4,20,3.74-7.1,7.32-13.25,10.25-19.69,2-4.33,4.48-6.51,9.43-5.85,3.08.41,6.26.07,10.31.07-1.38,2.85-2.34,5-3.46,7.13C872,335.79,867,345.55,861.58,355c-2.05,3.55-1.77,6.26.14,9.6,6.74,11.81,13.27,23.74,19.85,35.65A21.89,21.89,0,0,1,882.59,403.44Z"/><path class="cls-1" d="M649.89,511.59c0,10.17-.15,19.33.07,28.48.08,3.57-1.2,4.52-4.61,4.54-10.05,0-10.05.18-10.05-10q0-34.49,0-69v-6c12.25,0,23.91-.73,35.43.22,10.21.85,17.24,9.84,17.75,22.05a43,43,0,0,1-3.06,17.37c-3.66,9-11.81,12.05-21.06,12.31C659.75,511.7,655.12,511.59,649.89,511.59Zm.23-14.44c4.17,0,8,.17,11.73,0,10-.55,15.11-10.39,9.71-18.91-.91-1.42-2.58-3.2-4-3.3-5.72-.37-11.48-.15-17.44-.15Z"/><path class="cls-1" d="M495.81,482.92l-13.36,4c-.6-1.55-1.07-2.73-1.52-3.92-2.55-6.75-5.74-9.15-12.5-9.37-7.27-.24-11.78,2.08-14.19,8.56a52.47,52.47,0,0,0,.13,38,17.08,17.08,0,0,0,8.26,8.56c6.7,2.94,12.12,1,16.83-7.75,1.47-2.73,2.12-5.89,3.36-9.48,3.9,1.5,7.75,2.83,11.45,4.51a3.75,3.75,0,0,1,1.68,3c-.72,11.23-10.31,23-20.76,25.65-13.36,3.44-25.21-1.91-32.54-14.24-8.92-15-9.26-47.82,3.27-62.09,7.51-8.53,19.32-12.84,30.11-9.63A27.82,27.82,0,0,1,495.81,482.92Z"/><path class="cls-1" d="M432,202.69l-12.83,3.9c-2.29-3.46-3.82-6.82-6.26-9.28-8.13-8.18-20-2.34-22.74,5a53.24,53.24,0,0,0,.33,38.45c2.29,6,7,7.75,13,7.89,6.21.13,10.1-2.62,12.24-8.18,1.07-2.77,1.89-5.64,3-9.08L432,236.43c-.87,12.24-9.92,24.3-20,27-13,3.5-24.25-.84-32.14-12.22C371,238.39,371.49,224,373,209.48c.76-7.44,3.89-14,8.22-20a28.41,28.41,0,0,1,30-11.14C422,181,430.23,190.46,432,202.69Z"/><path class="cls-1" d="M729.14,543.83a7.15,7.15,0,0,1-1.11.47c-13.41,1.49-13.41,1.49-13.41-11.9V474.48c-5.87,0-11.15-.07-16.42,0-2.63,0-4.05-.75-3.92-3.68.16-3.62,0-7.25,0-11.22,1.92-.15,3.36-.36,4.8-.36,15.14,0,30.29.09,45.43-.09,3.76-.05,5.37.81,5.24,4.93-.37,12.19,1.34,10.26-10.31,10.38-10.06.1-10.06,0-10.06,10q0,26.7,0,53.41C729.4,539.81,729.24,541.78,729.14,543.83Z"/><path class="cls-1" d="M424.12,319.44c.3.56.43.69.44.84,1.42,14.1,1.42,14.1-12.67,14.1h-7.62v68.77h-14V334.38c-5.81,0-11.08-.18-16.33.06-3.55.16-4.75-1.18-4.5-4.63.25-3.29.06-6.61.06-10.37Z"/><path class="cls-1" d="M654.37,263.46V194.39c-5.4,0-10.49-.16-15.57.05-3.39.14-4.89-.9-4.62-4.5.26-3.43.05-6.9.05-10.63h54.6v15.06h-20v8.52c0,18.66-.06,37.32.06,56,0,3.36-.81,4.94-4.45,4.64C661.37,263.25,658.23,263.46,654.37,263.46Z"/><path class="cls-1" d="M625.65,528.93v15.16H577.57v-83.6H591.7v68.44Z"/><path class="cls-1" d="M579,320.07v6.51c0,19.15.1,38.3-.08,57.45,0,3.86.93,5.25,5,5.13,9.77-.3,19.55-.1,29.63-.1v14.4H608c-12.82,0-25.65-.1-38.47.06-3.52.05-5.06-.74-5-4.66.15-24.81.11-49.62,0-74.43,0-3.1.77-4.66,4.19-4.41C571.82,320.26,575,320.07,579,320.07Z"/><path class="cls-1" d="M697.27,263.46v-84h14.17c.09,1.75.25,3.36.25,5,0,24.49-.08,49,.11,73.47,0,4.28-1,6.2-5.52,5.64A78.5,78.5,0,0,0,697.27,263.46Z"/><path class="cls-1" d="M585.37,122.35h-13.9V39.44h13.9Z"/><path class="cls-1" d="M552.84,156.3c-4.45,6.16-7.62,11.64-11.93,16-1.77,1.8-6,1.21-10.17,1.88,2.19-6.07,3.78-10.91,5.74-15.6a4.62,4.62,0,0,1,3.34-2.19C543.6,156.12,547.42,156.3,552.84,156.3Z"/></g></g></svg>